<?xml version="1.0" encoding="UTF-8"?>
<svg id="Capa_1" data-name="Capa 1" xmlns="http://www.w3.org/2000/svg" viewBox="0 0 1050 1100">
  <defs>
    <style>
      .cls-1 {
        fill: #de3979;
      }

      .cls-1, .cls-2 {
        stroke-width: 0px;
      }

      .cls-2 {
        fill: #fff;
      }
    </style>
  </defs>
  <g>
    <path class="cls-1" d="M3.3,1088.25c-2.2-2.1-3.3-5.12-3.3-9.08v-196.47c0-3.96,1.1-6.99,3.3-9.08,2.2-2.09,5.17-3.14,8.92-3.14h14.2c7.26,0,11.67,2.76,13.21,8.25,1.32,4.62,2.09,9.03,2.31,13.21,6.82-7.93,14.8-14.09,23.94-18.49,9.13-4.4,19.09-6.6,29.88-6.6,14.53,0,27.18,3.52,37.97,10.57,10.78,7.05,19.09,16.79,24.93,29.22,5.83,12.44,8.75,26.58,8.75,42.43s-3.03,30.27-9.08,42.6c-6.06,12.33-14.59,21.96-25.59,28.89-11.01,6.94-23.77,10.4-38.3,10.4-20.03,0-36.44-6.93-49.2-20.8v69.01c0,3.96-1.1,6.98-3.3,9.08-2.2,2.09-5.17,3.14-8.92,3.14H12.22c-3.75,0-6.72-1.05-8.92-3.14ZM111.61,981.92c7.04-6.93,10.57-17.67,10.57-32.2s-3.41-25.81-10.23-33.18c-6.83-7.37-15.52-11.06-26.09-11.06-12.11,0-21.91,3.52-29.39,10.57-7.49,7.05-11.23,16.73-11.23,29.06v5.61c0,13.65,3.8,24,11.39,31.04,7.59,7.05,17.11,10.57,28.56,10.57,10.57,0,19.37-3.47,26.42-10.4Z"/>
    <path class="cls-1" d="M219.91,1012.47c-10.57-12.33-15.85-30.27-15.85-53.82v-75.94c0-8.14,4.07-12.22,12.22-12.22h20.8c3.74,0,6.71,1.05,8.91,3.14,2.2,2.09,3.3,5.12,3.3,9.08v77.6c0,10.57,2.31,18.55,6.93,23.94,4.62,5.4,11.23,8.09,19.81,8.09,11.44,0,20.42-3.96,26.91-11.89,6.49-7.93,9.74-19.59,9.74-35v-62.74c0-3.96,1.1-6.99,3.3-9.08,2.2-2.09,5.17-3.14,8.92-3.14h20.8c3.74,0,6.71,1.05,8.92,3.14,2.2,2.09,3.3,5.12,3.3,9.08v132.41c0,3.96-1.1,6.99-3.3,9.08-2.2,2.1-5.17,3.14-8.92,3.14h-14.2c-7.26,0-11.67-2.86-13.21-8.58-.88-3.74-1.54-7.93-1.98-12.55-13.21,16.51-30.27,24.76-51.18,24.76-19.59,0-34.67-6.16-45.24-18.49Z"/>
    <path class="cls-1" d="M407.13,1024.02c-2.2-2.2-3.3-5.17-3.3-8.92v-198.12c0-3.96,1.1-6.99,3.3-9.08,2.2-2.09,5.17-3.14,8.92-3.14h20.8c8.14,0,12.22,4.08,12.22,12.22v198.12c0,3.75-1.05,6.71-3.14,8.92-2.09,2.2-5.12,3.3-9.08,3.3h-20.8c-3.75,0-6.72-1.1-8.92-3.3Z"/>
    <path class="cls-1" d="M498.25,1088.25c-2.2-2.1-3.3-5.12-3.3-9.08v-196.47c0-3.96,1.1-6.99,3.3-9.08,2.2-2.09,5.17-3.14,8.92-3.14h14.2c7.26,0,11.66,2.76,13.21,8.25,1.32,4.62,2.09,9.03,2.31,13.21,6.82-7.93,14.8-14.09,23.94-18.49,9.13-4.4,19.09-6.6,29.88-6.6,14.53,0,27.18,3.52,37.97,10.57,10.78,7.05,19.09,16.79,24.93,29.22,5.83,12.44,8.75,26.58,8.75,42.43s-3.03,30.27-9.08,42.6c-6.06,12.33-14.58,21.96-25.59,28.89-11.01,6.94-23.77,10.4-38.3,10.4-20.04,0-36.44-6.93-49.2-20.8v69.01c0,3.96-1.1,6.98-3.3,9.08-2.2,2.09-5.17,3.14-8.91,3.14h-20.8c-3.75,0-6.72-1.05-8.92-3.14ZM606.56,981.92c7.04-6.93,10.57-17.67,10.57-32.2s-3.42-25.81-10.24-33.18c-6.83-7.37-15.52-11.06-26.09-11.06-12.11,0-21.91,3.52-29.38,10.57-7.49,7.05-11.23,16.73-11.23,29.06v5.61c0,13.65,3.79,24,11.39,31.04,7.59,7.05,17.11,10.57,28.56,10.57,10.57,0,19.37-3.47,26.42-10.4Z"/>
    <path class="cls-1" d="M731.7,1020.06c-12.77-7.27-22.57-17.11-29.39-29.55-6.83-12.43-10.24-26.36-10.24-41.77s3.52-28.34,10.57-40.78c7.04-12.43,16.95-22.4,29.72-29.88,12.76-7.48,27.4-11.23,43.91-11.23s31.37,3.63,43.91,10.9c12.55,7.26,22.23,17.12,29.06,29.55,6.82,12.44,10.24,26.25,10.24,41.44s-3.47,28.12-10.4,40.78c-6.93,12.66-16.73,22.73-29.38,30.21-12.66,7.49-27.14,11.23-43.42,11.23s-31.81-3.63-44.58-10.9ZM804.18,979.61c6.49-8.47,9.74-18.76,9.74-30.87s-3.25-22.34-9.74-30.71c-6.5-8.36-15.8-12.55-27.9-12.55s-22.12,4.18-28.73,12.55c-6.6,8.37-9.91,18.6-9.91,30.71s3.25,22.4,9.74,30.87c6.49,8.48,16.01,12.71,28.56,12.71s21.74-4.24,28.23-12.71Z"/>
    <path class="cls-1" d="M911.98,1012.47c-10.56-12.33-15.85-30.27-15.85-53.82v-75.94c0-8.14,4.07-12.22,12.22-12.22h20.8c3.74,0,6.71,1.05,8.92,3.14,2.2,2.09,3.3,5.12,3.3,9.08v77.6c0,10.57,2.31,18.55,6.94,23.94,4.62,5.4,11.23,8.09,19.81,8.09,11.44,0,20.41-3.96,26.91-11.89,6.49-7.93,9.74-19.59,9.74-35v-62.74c0-3.96,1.1-6.99,3.3-9.08,2.2-2.09,5.17-3.14,8.92-3.14h20.8c3.74,0,6.71,1.05,8.92,3.14,2.2,2.09,3.3,5.12,3.3,9.08v132.41c0,3.96-1.1,6.99-3.3,9.08-2.2,2.1-5.17,3.14-8.92,3.14h-14.2c-7.26,0-11.67-2.86-13.21-8.58-.88-3.74-1.54-7.93-1.98-12.55-13.21,16.51-30.27,24.76-51.18,24.76-19.6,0-34.67-6.16-45.24-18.49Z"/>
  </g>
  <path class="cls-1" d="M833.35,576.41c-57.19,6.48-104.3-37.34-121.51-71.48,68.96-41.65,114.99-110.68,108.24-207.84C808.77,134.29,680.82,4.83,517.66,8.7c-163.12,3.87-282.86,139.31-288.37,302.4-2.86,84.59,38.19,147.25,99.8,187.55-16.12,34.3-52.19,81.6-121.68,86.96-41.28,3.18-43.1,65.11-1.22,87.54,38.96,19.24,75.15-3.28,104.51-33.95,27.68-28.92,64.64-89.38,77.42-110.85,13.63,5.15,27.74,9.52,42.21,13.04-17.82,78.29-40.58,101.68-78.13,118.02-41.02,17.84-17.66,76.1,30.71,82.46h0c37.26.52,69.12-31.28,87.94-68.39,17.73-34.96,22.43-75.22,25.98-121.84,16.37,1.16,32.84,1.36,49.23.58,6.05,36.74,17.8,96.98,33.54,125.88,20.33,37.31,49.46,72.12,92.42,63.77h0c46.62-7.65,56.97-70.64,14.13-86.84-34.08-12.89-57.53-66.46-73.74-111.48,13.62-2.97,26.97-6.68,39.92-11.11,14.82,18.48,61.35,78.74,93.38,103.97,33.36,26.28,67.21,48.73,103.1,24.24h0c38.34-28.06,25.68-88.9-15.47-84.24Z"/>
  <path id="OJOS" class="cls-2" d="M673.7,137.22c-65.63,1.55-121.01,42.7-143.89,100.07-22.13-64.11-83.69-109.47-155.14-107.78-88.35,2.11-158.32,75.45-156.22,163.85,2.1,88.42,75.52,158.39,163.85,156.29,66.3-1.56,122.2-43.22,145.14-101.24,22.1,63.41,83.08,108.24,153.82,106.56,87.72-2.07,157.15-74.88,155.07-162.64-2.11-87.77-74.9-157.2-162.63-155.11Z"/>
  <g id="Pupilas">
    <path class="cls-1" d="M435.37,267.32c-9.13.35-16.75,10.15-19.31,23.43l17.16,7.04-18.06,4.17c.51,18.04,9.87,32.21,21.2,31.77,11.41-.43,20.48-15.64,20.2-33.98-.27-18.33-9.76-32.85-21.18-32.41Z"/>
    <path class="cls-1" d="M605.86,266.87c-9.14.35-16.76,10.15-19.32,23.43l17.16,7.04-18.05,4.17c.5,18.04,9.87,32.21,21.2,31.77,11.41-.43,20.48-15.65,20.2-33.99-.28-18.33-9.76-32.86-21.18-32.41Z"/>
  </g>
  <path id="Marco" class="cls-1" d="M676.84,154.17l-3.35.04c-36.94.88-71.34,16.09-96.83,42.82-23.3,24.43-36.59,55.8-38.06,89.18h-22.34c-2.69-75.24-65.56-136.2-140.94-136.2l-3.42.04c-77.8,1.83-139.62,66.64-137.8,144.45,1.8,75.97,65.09,137.81,141.02,137.81l3.42-.04c37.72-.89,72.81-16.4,98.84-43.69,22.26-23.36,35.58-52.96,38.41-84.66h23.14c5.89,70.71,66.03,126.94,137.75,126.94l3.37-.04c76.23-1.8,136.81-65.33,135.05-141.59-1.84-75.74-62.55-135.07-138.25-135.07ZM500.28,294.91c-.89,30.94-13.01,60.05-34.5,82.62-23.1,24.17-54.19,37.93-87.6,38.71l-3.06.05c-67.32,0-123.39-54.81-124.99-122.16-1.6-68.98,53.18-126.42,122.13-128.04l3.06-.04c67.11,0,123.05,54.5,124.96,121.61v7.25ZM679.67,415.11l-3,.04c-65.97,0-120.92-53.7-122.46-119.72-.8-32.75,11.22-63.84,33.81-87.54,22.59-23.71,53.1-37.18,85.82-37.96l2.99-.03c67.09,0,120.92,52.58,122.53,119.72,1.58,67.61-52.12,123.9-119.69,125.5Z"/>
</svg>