<?xml version="1.0" encoding="UTF-8"?>
<svg id="Capa_1" data-name="Capa 1" xmlns="http://www.w3.org/2000/svg" viewBox="0 0 1602 517">
  <defs>
    <style>
      .cls-1 {
        fill: #de3979;
      }

      .cls-1, .cls-2 {
        stroke-width: 0px;
      }

      .cls-2 {
        fill: #fff;
      }
    </style>
  </defs>
  <g>
    <path class="cls-1" d="M572.96,313.98c-2.16-2.06-3.24-5.03-3.24-8.92V112.1c0-3.89,1.08-6.86,3.24-8.92,2.16-2.05,5.08-3.08,8.76-3.08h13.94c7.14,0,11.46,2.71,12.97,8.11,1.3,4.54,2.05,8.87,2.27,12.97,6.7-7.78,14.54-13.83,23.51-18.16,8.97-4.32,18.75-6.49,29.35-6.49,14.27,0,26.7,3.46,37.3,10.38,10.59,6.92,18.75,16.49,24.49,28.7,5.73,12.22,8.59,26.11,8.59,41.67s-2.97,29.73-8.92,41.84c-5.95,12.11-14.33,21.57-25.13,28.38-10.81,6.81-23.35,10.22-37.62,10.22-19.68,0-35.79-6.81-48.32-20.43v67.78c0,3.89-1.09,6.86-3.24,8.92-2.16,2.05-5.08,3.08-8.76,3.08h-20.43c-3.68,0-6.6-1.03-8.76-3.08ZM679.33,209.55c6.92-6.81,10.38-17.35,10.38-31.62s-3.35-25.35-10.05-32.59c-6.71-7.24-15.24-10.87-25.62-10.87-11.89,0-21.52,3.46-28.86,10.38-7.35,6.92-11.03,16.43-11.03,28.54v5.51c0,13.41,3.73,23.57,11.19,30.48,7.46,6.92,16.81,10.38,28.05,10.38,10.38,0,19.02-3.4,25.94-10.21Z"/>
    <path class="cls-1" d="M785.7,239.55c-10.38-12.11-15.57-29.73-15.57-52.86v-74.59c0-8,4-12,12-12h20.43c3.67,0,6.59,1.03,8.75,3.08,2.16,2.06,3.24,5.03,3.24,8.92v76.21c0,10.38,2.27,18.22,6.81,23.51,4.54,5.3,11.03,7.95,19.46,7.95,11.24,0,20.05-3.89,26.43-11.67,6.37-7.78,9.57-19.24,9.57-34.38v-61.62c0-3.89,1.08-6.86,3.24-8.92,2.16-2.05,5.08-3.08,8.76-3.08h20.43c3.67,0,6.59,1.03,8.76,3.08,2.16,2.06,3.24,5.03,3.24,8.92v130.05c0,3.89-1.09,6.87-3.24,8.92-2.16,2.06-5.08,3.08-8.76,3.08h-13.94c-7.14,0-11.46-2.81-12.97-8.43-.87-3.68-1.51-7.78-1.94-12.32-12.97,16.22-29.73,24.32-50.27,24.32-19.25,0-34.05-6.05-44.43-18.16Z"/>
    <path class="cls-1" d="M969.58,250.9c-2.16-2.16-3.24-5.08-3.24-8.76V47.56c0-3.89,1.08-6.86,3.24-8.92,2.16-2.05,5.08-3.08,8.76-3.08h20.43c8,0,12,4,12,12v194.59c0,3.68-1.03,6.6-3.08,8.76-2.06,2.16-5.03,3.24-8.92,3.24h-20.43c-3.68,0-6.6-1.08-8.76-3.24Z"/>
    <path class="cls-1" d="M1059.09,313.98c-2.16-2.06-3.24-5.03-3.24-8.92V112.1c0-3.89,1.08-6.86,3.24-8.92,2.16-2.05,5.08-3.08,8.76-3.08h13.94c7.13,0,11.46,2.71,12.97,8.11,1.3,4.54,2.05,8.87,2.27,12.97,6.7-7.78,14.54-13.83,23.52-18.16,8.97-4.32,18.75-6.49,29.35-6.49,14.27,0,26.7,3.46,37.3,10.38,10.59,6.92,18.75,16.49,24.48,28.7,5.73,12.22,8.6,26.11,8.6,41.67s-2.97,29.73-8.92,41.84c-5.95,12.11-14.32,21.57-25.13,28.38-10.81,6.81-23.35,10.22-37.61,10.22-19.68,0-35.79-6.81-48.32-20.43v67.78c0,3.89-1.08,6.86-3.24,8.92-2.16,2.05-5.08,3.08-8.75,3.08h-20.43c-3.68,0-6.6-1.03-8.76-3.08ZM1165.47,209.55c6.92-6.81,10.38-17.35,10.38-31.62s-3.36-25.35-10.05-32.59c-6.71-7.24-15.24-10.87-25.62-10.87-11.9,0-21.52,3.46-28.86,10.38-7.36,6.92-11.03,16.43-11.03,28.54v5.51c0,13.41,3.73,23.57,11.19,30.48,7.46,6.92,16.81,10.38,28.05,10.38,10.38,0,19.02-3.4,25.95-10.21Z"/>
    <path class="cls-1" d="M1288.37,247.01c-12.54-7.14-22.16-16.81-28.86-29.03-6.7-12.21-10.05-25.89-10.05-41.02s3.46-27.83,10.38-40.05c6.92-12.21,16.65-22,29.19-29.35,12.53-7.35,26.92-11.03,43.13-11.03s30.81,3.57,43.13,10.7c12.32,7.13,21.84,16.81,28.54,29.03,6.7,12.22,10.05,25.78,10.05,40.7s-3.4,27.62-10.22,40.05c-6.81,12.43-16.43,22.33-28.86,29.67-12.44,7.35-26.65,11.03-42.65,11.03s-31.25-3.57-43.78-10.7ZM1359.56,207.28c6.38-8.32,9.57-18.43,9.57-30.32s-3.19-21.94-9.57-30.16c-6.38-8.21-15.52-12.32-27.4-12.32s-21.73,4.11-28.21,12.32c-6.49,8.22-9.73,18.27-9.73,30.16s3.19,22,9.57,30.32c6.37,8.33,15.73,12.49,28.05,12.49s21.35-4.16,27.73-12.49Z"/>
    <path class="cls-1" d="M1465.44,239.55c-10.38-12.11-15.57-29.73-15.57-52.86v-74.59c0-8,4-12,12-12h20.43c3.67,0,6.59,1.03,8.76,3.08,2.16,2.06,3.24,5.03,3.24,8.92v76.21c0,10.38,2.27,18.22,6.81,23.51,4.54,5.3,11.03,7.95,19.46,7.95,11.24,0,20.05-3.89,26.43-11.67,6.38-7.78,9.57-19.24,9.57-34.38v-61.62c0-3.89,1.08-6.86,3.24-8.92,2.16-2.05,5.08-3.08,8.76-3.08h20.43c3.68,0,6.59,1.03,8.76,3.08,2.16,2.06,3.24,5.03,3.24,8.92v130.05c0,3.89-1.08,6.87-3.24,8.92-2.16,2.06-5.08,3.08-8.76,3.08h-13.95c-7.13,0-11.46-2.81-12.97-8.43-.87-3.68-1.52-7.78-1.95-12.32-12.97,16.22-29.73,24.32-50.27,24.32-19.25,0-34.05-6.05-44.43-18.16Z"/>
  </g>
  <g>
    <path class="cls-1" d="M462.68,399.27c-40.14,4.55-73.21-26.21-85.29-50.17,48.4-29.24,80.71-77.69,75.98-145.88C445.44,88.94,355.63-1.94,241.1.78,126.6,3.5,42.55,98.56,38.68,213.05c-2.01,59.37,26.81,103.35,70.05,131.64-11.31,24.08-36.63,57.28-85.41,61.04-28.98,2.24-30.25,45.7-.86,61.45,27.35,13.5,52.75-2.3,73.36-23.83,19.43-20.3,45.37-62.74,54.34-77.81,9.57,3.62,19.47,6.68,29.63,9.15-12.51,54.95-28.48,71.37-54.84,82.84-28.79,12.52-12.4,53.41,21.56,57.88h0c26.16.36,48.52-21.96,61.73-48.01,12.45-24.54,15.75-52.8,18.23-85.52,11.49.81,23.05.96,34.56.41,4.25,25.79,12.49,68.07,23.54,88.36,14.27,26.19,34.72,50.62,64.87,44.76h0c32.72-5.37,39.99-49.58,9.92-60.95-23.92-9.05-40.38-46.65-51.76-78.25,9.56-2.09,18.93-4.69,28.02-7.8,10.4,12.97,43.06,55.27,65.54,72.98,23.41,18.44,47.17,34.2,72.37,17.01h0c26.91-19.69,18.02-62.4-10.86-59.13Z"/>
    <path id="OJOS" class="cls-2" d="M350.63,90.99c-46.07,1.09-84.94,29.97-101,70.24-15.54-45-58.74-76.84-108.9-75.65-62.01,1.48-111.13,52.96-109.66,115.01,1.48,62.06,53.01,111.17,115.01,109.7,46.53-1.1,85.77-30.33,101.88-71.06,15.51,44.51,58.32,75.97,107.97,74.8,61.57-1.45,110.31-52.56,108.85-114.16-1.48-61.61-52.57-110.34-114.15-108.88Z"/>
    <g id="Pupilas">
      <path class="cls-1" d="M183.34,182.31c-6.41.24-11.76,7.13-13.56,16.44l12.05,4.94-12.68,2.92c.35,12.66,6.93,22.61,14.88,22.3,8.01-.3,14.38-10.98,14.18-23.85-.19-12.87-6.85-23.06-14.87-22.75Z"/>
      <path class="cls-1" d="M303.01,181.99c-6.42.24-11.76,7.13-13.56,16.44l12.04,4.94-12.67,2.92c.35,12.66,6.93,22.61,14.88,22.3,8.01-.3,14.38-10.98,14.18-23.86-.19-12.87-6.85-23.06-14.87-22.75Z"/>
    </g>
    <path id="Marco" class="cls-1" d="M352.82,102.89l-2.35.03c-25.93.62-50.07,11.29-67.97,30.06-16.35,17.15-25.68,39.16-26.71,62.6h-15.68c-1.89-52.81-46.02-95.6-98.93-95.6l-2.4.03c-54.61,1.29-98,46.78-96.72,101.39,1.26,53.32,45.69,96.73,98.98,96.73l2.4-.03c26.48-.63,51.1-11.51,69.37-30.67,15.62-16.4,24.98-37.17,26.96-59.42h16.25c4.14,49.63,46.35,89.1,96.69,89.1l2.36-.03c53.51-1.27,96.03-45.85,94.79-99.39-1.29-53.16-43.91-94.8-97.04-94.8ZM228.9,201.68c-.62,21.72-9.13,42.15-24.22,57.99-16.21,16.97-38.03,26.63-61.49,27.17l-2.14.03c-47.25,0-86.61-38.47-87.74-85.75-1.12-48.42,37.33-88.73,85.72-89.87l2.15-.03c47.11,0,86.37,38.26,87.71,85.36v5.09ZM354.82,286.05l-2.11.03c-46.31,0-84.87-37.69-85.96-84.04-.56-22.99,7.88-44.81,23.73-61.45,15.86-16.64,37.27-26.1,60.24-26.64l2.1-.02c47.09,0,84.87,36.91,86,84.03,1.11,47.45-36.58,86.97-84.01,88.09Z"/>
  </g>
</svg>